<svg id="Layer_1" enable-background="new 0 0 512.041 512.041" height="512" viewBox="0 0 512.041 512.041" width="512" xmlns="http://www.w3.org/2000/svg"><g><g clip-rule="evenodd" fill-rule="evenodd"><path d="m158.488 54.239c29.079 8.635 56.763 28 78.027 49.265 21.265 21.264 40.63 48.948 49.265 78.027 3.88 13.068 7.5 34.647-.968 46.829-.674.969-1.428 1.874-2.263 2.709-.834.834-1.74 1.589-2.708 2.263-12.182 8.469-33.761 4.849-46.829.969-29.079-8.635-56.763-28-78.028-49.265s-40.63-48.948-49.265-78.028c-3.88-13.068-7.5-34.647.969-46.829.674-.969 1.428-1.874 2.263-2.708.835-.835 1.74-1.589 2.709-2.263 12.181-8.469 33.76-4.849 46.828-.969zm-77.822-25.053c-38.135 38.135-17.525 120.575 46.034 184.134s145.998 84.168 184.133 46.033 17.526-120.575-46.033-184.134-145.998-84.168-184.134-46.033z" fill="#e8eaf0"/><path d="m236.515 103.504c-21.264-21.265-48.948-40.63-78.027-49.265-13.068-3.88-34.647-7.5-46.829.968-.969.674-1.874 1.428-2.709 2.263-.835.834-1.589 1.74-2.263 2.708-8.468 12.182-4.849 33.761-.969 46.829 8.635 29.079 28 56.763 49.265 78.028s48.948 40.63 78.028 49.265c13.068 3.88 34.647 7.5 46.829-.969.969-.674 1.874-1.428 2.708-2.263.835-.835 1.589-1.74 2.263-2.709 8.469-12.182 4.849-33.761.968-46.829-8.633-29.078-27.999-56.761-49.264-78.026z" fill="#cfd3df"/><path d="m126.7 213.32c-63.559-63.559-84.169-145.999-46.034-184.134l-23.017 23.017c-63.559 63.559-63.559 166.609 0 230.168s166.608 63.559 230.167 0l23.017-23.018c-38.135 38.135-120.574 17.526-184.133-46.033z" fill="#c68a65"/><path d="m370.67 370.731c71.504-71.504 94.69-164.248 51.787-207.15-42.902-42.902-135.646-19.716-207.15 51.788s-94.69 164.248-51.788 207.15c42.903 42.902 135.647 19.716 207.151-51.788zm19.774-181.981c1.334.927 2.581 1.967 3.729 3.116 1.149 1.148 2.188 2.395 3.116 3.729 10.564 15.196 6.654 40.536 1.777 56.959-9.956 33.53-32.156 65.369-56.681 89.893-24.524 24.525-56.364 46.725-89.893 56.681-16.423 4.876-41.763 8.787-56.959-1.777-1.333-.927-2.58-1.967-3.729-3.116s-2.189-2.396-3.116-3.73c-10.564-15.197-6.654-40.536-1.777-56.959 9.956-33.529 32.156-65.368 56.681-89.892 24.524-24.525 56.363-46.725 89.892-56.681 16.424-4.877 41.763-8.787 56.96 1.777z" fill="#fff"/><path d="m342.386 342.447c24.525-24.524 46.725-56.364 56.681-89.893 4.876-16.423 8.787-41.763-1.777-56.959-.927-1.333-1.967-2.58-3.116-3.729s-2.396-2.189-3.729-3.116c-15.197-10.564-40.536-6.654-56.959-1.777-33.529 9.956-65.368 32.156-89.892 56.681-24.525 24.524-46.725 56.363-56.681 89.892-4.877 16.423-8.787 41.762 1.777 56.959.927 1.334 1.967 2.581 3.116 3.73s2.395 2.188 3.729 3.116c15.196 10.565 40.536 6.654 56.959 1.777 33.528-9.956 65.368-32.156 89.892-56.681z" fill="#e8eaf0"/><path d="m422.458 163.581c42.902 42.902 19.716 135.646-51.787 207.15-71.504 71.504-164.249 94.69-207.15 51.788l25.894 25.895c71.504 71.504 187.435 71.504 258.938 0 71.504-71.503 71.504-187.434 0-258.938z" fill="#c68a65"/></g><g><path d="m189.825 405.561c9.179 6.381 20.656 8.454 31.694 8.454 13.691 0 26.706-3.189 33.819-5.301 66.287-19.683 133.631-87.027 153.313-153.314 4.897-16.493 13.483-56.802-12.5-74.861-20.567-14.297-52.667-6.966-65.515-3.152-19.414 5.765-39.052 15.555-58.367 29.099-4.522 3.171-5.617 9.407-2.446 13.929 3.17 4.522 9.406 5.619 13.929 2.446 17.546-12.303 35.235-21.152 52.578-26.301 16.2-4.811 37.424-7.231 48.406.402 12.471 8.668 10.627 32.93 4.743 52.746-17.653 59.452-80.383 122.181-139.835 139.834-16.2 4.81-37.424 7.232-48.403-.401-12.472-8.671-10.628-32.933-4.744-52.748 5.149-17.34 13.997-35.029 26.299-52.575 3.17-4.522 2.074-10.758-2.448-13.929-4.521-3.172-10.757-2.075-13.929 2.447-13.541 19.315-23.33 38.951-29.094 58.363-4.896 16.491-13.481 56.798 12.5 74.862z"/><path d="m455.424 182.405-25.894-25.895c-23.331-23.331-59.678-30.305-102.347-19.639-1.616.404-3.235.84-4.854 1.291-11.885-24.689-29.192-48.749-50.457-70.014-32.003-32.003-69.735-54.655-106.246-63.782-38.318-9.58-71.004-3.277-92.03 17.749l-23.019 23.017c-67.355 67.356-67.355 176.954 0 244.31 23.358 23.357 52.352 39.282 84.31 46.408-7.711 38.928-.187 71.977 21.546 93.723.005.005.01.012.015.017l25.896 25.894c36.471 36.472 84.962 56.557 136.54 56.557s100.068-20.085 136.54-56.557c36.471-36.471 56.557-84.962 56.557-136.54s-20.086-100.068-56.557-136.539zm-294.649-158.636c33.045 8.261 67.478 29.045 96.954 58.522 19.027 19.027 34.602 40.377 45.474 62.249-6.119 2.373-12.236 5.055-18.324 8.044-12.256-24.375-28.878-43.736-41.292-56.151-25.092-25.092-54.303-43.481-82.252-51.78-13.964-4.146-48.041-11.491-62.858 9.818-11.882 17.092-5.598 44.425-2.344 55.383 8.299 27.951 26.688 57.162 51.78 82.252 13.43 13.431 28.32 25.148 43.546 34.328-4.41 5.156-8.609 10.407-12.587 15.734-15.916-9.822-31.059-21.878-45.101-35.92-29.477-29.477-50.26-63.909-58.521-96.955-7.809-31.236-3.374-57.174 12.488-73.036 15.861-15.863 41.801-20.296 73.037-12.488zm47.462 184.529c-1.007 1.007-2.003 2.021-2.994 3.038-15.031-8.603-29.861-20.046-43.187-33.372-22.779-22.778-39.382-48.988-46.75-73.803-4.912-16.542-5.071-31.565-.408-38.273 5.639-8.109 24.524-6.879 40.744-2.063 24.813 7.368 51.023 23.971 73.803 46.75 15.736 15.737 28.961 33.79 37.845 51.538-20.665 12.232-40.699 27.83-59.053 46.185zm-156.547-134.201c-.651 10.542.25 21.873 2.732 33.801-6.394 9.375-11.996 19.155-16.664 29.13-2.341 5.002-.184 10.955 4.818 13.296 1.371.642 2.813.945 4.232.945 3.761 0 7.364-2.132 9.064-5.764 1.866-3.988 3.905-7.942 6.093-11.851 5.791 15.418 13.831 30.833 23.82 45.733-7.901 10.405-14.899 20.588-20.841 30.331-2.876 4.715-1.386 10.869 3.33 13.745 1.626.992 3.423 1.464 5.197 1.464 3.371 0 6.663-1.706 8.547-4.794 4.681-7.673 10.084-15.665 16.111-23.851 6.583 8.305 13.764 16.376 21.498 24.11 14.868 14.867 30.92 27.689 47.815 38.219-12.161 18.889-21.518 38.442-27.587 57.839-18.541-4.058-35.965-11.456-51.607-21.869 9.422-2.578 20.1-7.117 31.932-13.629 4.839-2.663 6.603-8.744 3.939-13.583-2.662-4.838-8.745-6.603-13.582-3.939-29.433 16.197-42.843 14.846-45.818 11.87-.003-.003-.006-.005-.008-.007-54.831-54.841-59.17-141.342-13.021-201.196zm104.523 257.998c9.349-37.393 32.847-76.335 66.166-109.654 33.319-33.32 72.263-56.818 109.655-66.166 11.428-2.857 22.235-4.27 32.249-4.27 21.165 0 38.771 6.315 51.104 18.648 18.168 18.167 23.273 47.769 14.378 83.353-9.349 37.393-32.847 76.335-66.166 109.655s-72.262 56.817-109.654 66.166c-35.585 8.895-65.186 3.79-83.353-14.378-18.168-18.169-23.274-47.771-14.379-83.354zm53.788 121.425c3.783.372 7.652.582 11.623.582 9.727 0 20.004-1.137 30.707-3.398 10.623 7.279 21.717 13.654 33.039 18.954 1.371.642 2.813.945 4.232.945 3.761 0 7.364-2.132 9.063-5.763 2.342-5.002.185-10.955-4.817-13.296-5.311-2.486-10.568-5.241-15.748-8.226 34.652-12.523 69.419-35.295 99.641-65.516 9.065-9.065 17.456-18.54 25.105-28.297 7.198 9.703 13.624 19.168 19.156 28.238 1.884 3.089 5.175 4.794 8.547 4.794 1.774 0 3.571-.473 5.197-1.464 4.715-2.876 6.206-9.03 3.33-13.745-6.794-11.14-14.832-22.802-23.92-34.727 11.96-17.719 21.47-36.095 28.1-54.441 2.985 5.18 5.74 10.438 8.226 15.749 1.699 3.631 5.302 5.763 9.063 5.763 1.419 0 2.862-.304 4.232-.945 5.002-2.341 7.159-8.294 4.817-13.296-5.297-11.319-11.671-22.412-18.95-33.035 3.182-15.061 4.112-29.268 2.835-42.307 24.939 30.718 38.499 68.743 38.499 108.856 0 46.232-18.002 89.698-50.692 122.39-.003.003-.006.005-.008.008-5.152 5.15-23.547 3.084-53.033-13.143-4.837-2.661-10.919-.899-13.582 3.94-2.663 4.838-.899 10.919 3.939 13.583 14.379 7.913 27.2 13.217 38.314 15.924-28.625 19.754-62.51 30.395-98.035 30.395-40.122-.001-78.158-13.569-108.88-38.522z"/><path d="m243.593 253.654c5.522 0 10-4.477 10-10s-4.478-10-10-10h-.008c-5.522 0-9.996 4.477-9.996 10s4.482 10 10.004 10z"/></g></g></svg>